<?xml version="1.0" standalone="no"?>
<!DOCTYPE svg PUBLIC "-//W3C//DTD SVG 20010904//EN"
 "http://www.w3.org/TR/2001/REC-SVG-20010904/DTD/svg10.dtd">
<svg version="1.0" xmlns="http://www.w3.org/2000/svg"
 width="731.000000pt" height="731.000000pt" viewBox="0 0 731.000000 731.000000"
 preserveAspectRatio="xMidYMid meet">
<metadata>
Created by potrace 1.14, written by Peter Selinger 2001-2017
</metadata>
<g transform="translate(0.000000,731.000000) scale(0.100000,-0.100000)"
fill="#000000" stroke="none">
<path d="M0 3655 l0 -3655 3655 0 3655 0 0 3655 0 3655 -3655 0 -3655 0 0
-3655z m4942 2486 c601 -103 1066 -559 1200 -1177 21 -97 22 -117 25 -1189 4
-1107 0 -1302 -33 -1455 -85 -402 -346 -766 -698 -973 -146 -85 -326 -150
-511 -184 -80 -15 -216 -17 -1180 -21 -1132 -3 -1267 0 -1436 38 -432 95 -806
385 -999 775 -66 132 -110 259 -137 392 -17 82 -18 176 -18 1308 0 1351 -3
1276 65 1487 154 469 551 846 1020 969 181 47 179 47 1417 48 1117 1 1176 0
1285 -18z"/>
<path d="M2500 5770 c-217 -28 -429 -124 -603 -273 -138 -118 -280 -350 -326
-531 -40 -154 -43 -245 -39 -1391 4 -1013 6 -1106 22 -1175 55 -233 153 -407
314 -562 168 -161 351 -254 576 -293 76 -13 250 -15 1207 -15 747 0 1143 4
1195 11 299 41 584 223 752 479 70 105 113 202 151 339 l26 96 0 1180 c0 1105
-1 1185 -18 1265 -94 437 -429 768 -867 855 -63 13 -256 16 -1195 19 -667 3
-1150 1 -1195 -4z m1828 -980 c72 -44 91 -125 47 -208 -13 -26 -289 -495 -613
-1042 -460 -777 -596 -1000 -622 -1017 -43 -30 -112 -31 -158 -3 -46 29 -77
99 -65 149 5 20 130 241 278 491 147 250 338 574 424 720 86 146 239 405 340
576 154 261 190 315 220 333 46 26 106 27 149 1z m-1606 -568 c35 -33 41 -46
45 -88 4 -35 0 -60 -10 -80 -9 -16 -113 -126 -231 -244 l-216 -215 219 -220
c121 -121 225 -233 230 -248 48 -127 -70 -244 -190 -189 -58 26 -541 510 -563
564 -20 48 -20 128 -1 176 17 39 522 556 560 572 11 5 42 9 68 9 42 1 53 -4
89 -37z m2036 24 c40 -21 527 -515 548 -556 24 -46 24 -143 1 -190 -10 -20
-138 -156 -285 -302 -297 -296 -298 -297 -387 -263 -70 26 -108 99 -91 172 5
18 87 107 234 256 l227 227 -222 223 c-122 122 -227 235 -233 250 -23 64 -6
124 50 171 25 20 42 26 81 26 28 0 62 -6 77 -14z"/>
</g>
</svg>
