<svg id="fe1a4c6e-d32e-42ef-beab-1cef1637ba0f" data-name="Calque 1" xmlns="http://www.w3.org/2000/svg" viewBox="0 0 159.86 57"><defs></defs><path class="b0636902-ef71-4f29-b97d-ca126c02c7ea" d="M29.73,28.2c-.36.22-.81,1.9-1.42,2.73-.32-3.57-.66-7.41-.66-11.06a22.68,22.68,0,0,1,2.08-9c.17-.57-.93-.7-.93-.7-12.25,11.12-15,14.13-15,18.54-.06,6.44,6.58,8,11.19,6.29a.2.2,0,0,1,.27.18c.17,2.1.34,3.37.34,5,0,6.75-2.79,9-6.94,9.17-7.45.13-9.81-9.18-3.48-12.27l-.46-.92c-1.15.24-6.49,2.08-6.49,7,.14,8.46,14.38,9.33,18.7,4.16,3.29-3.89,1.92-9.34,1.6-14.78a15.26,15.26,0,0,0,2.16-3.74A.69.69,0,0,0,29.73,28.2Zm-5.54-5.57c0,2.57.49,6.91.91,11a.22.22,0,0,1-.12.22,7.2,7.2,0,0,1-2.89.59c-3.46,0-5.54-1.85-5.54-6.26,0-4.23,1.81-6.47,8.28-12.72a.2.2,0,0,1,.34.2A25.25,25.25,0,0,0,24.19,22.63Z"/><path class="b0636902-ef71-4f29-b97d-ca126c02c7ea" d="M55.32,33.15a.2.2,0,0,1-.07-.23,10,10,0,0,0,.56-2.55,1.57,1.57,0,0,0-1.71-1.7c-2.94.23-3,4-.86,5.73a.19.19,0,0,1,0,.23l-2.15,4.7-.1.22c-3.1,6.15-4.32,7.51-5.11,7.51-.59,0-.93-.48-.93-1.5,0-3.05,1-7.73,1-10.83,0-2.42-1-4-3.28-4s-4.6,2.22-6.36,4.8a.2.2,0,0,1-.37-.12c.09-2.46.24-3.83.24-3.75,0-.7-.18-.93-.67-.93s-2.15.09-2.51.93c-.2,0-.05,11.7-.09,12.14-.19,1.57-1.62,5.53.22,5.45.7,0,2.56-.45,2.56-1.38,0-3.55,0-6.72.2-9.4,1.45-2.91,4.1-6.18,5.77-6.18,1,0,1.44.75,1.44,1.86,0,2.55-1.17,8.48-1.17,12.09,0,2.4,1.31,3,2.6,3,2,0,3.8-1.81,7.42-9h0l.08-.18.14-.3h0l1.93-4.29a.2.2,0,0,1,.31-.07c2.45,2.18,7.26,4.38,7.26,8.16,0,2.74-1.58,4.69-4,4.69-5.55.09-4.62-7-.05-7.13v-.65c-6.79-1.27-7.47,8.69-.2,8.79,4.55,0,7.06-3.8,7.06-7.87C64.48,36.65,58.08,35.18,55.32,33.15Zm-1-.79c-.89-.78-1.48-2.47-.23-2.67C55.35,29.89,54.73,31.52,54.37,32.36Z"/><path class="b0636902-ef71-4f29-b97d-ca126c02c7ea" d="M152.07,43c-.57.1-2.57,3.75-3.45,3.75-1.88-.16.66-8.9.32-11.58,0-2.83-1.16-4.39-3.42-4.39-3.05,0-5.56,4.25-6.8,7.08,0-.23-.05-.5-.05-.75,1.11-5,4.3-18.92-.27-18.92-1.63,0-3.44,1.85-3.44,5.65,0,5.28.68,10.34.9,15.41l-.16.33c-2.55,5.09-4.77,7.17-6.89,7.17-2.92,0-4.68-2.83-4.68-6.9,0-5.18,2.17-7.69,3.89-7.69,2.42,0,1.89,3,1.1,4.23l.23.63c3.9-1,4.24-6.08-.7-6.24-3.16,0-6.55,3.4-7.32,8.64l-.08.16c-2.56,5.09-4.77,7.17-6.9,7.17-2.47,0-4.11-2-4.57-5.09a.22.22,0,0,1,.1-.21c4.27-2.62,8-4.86,8-7.89,0-1.58-1.13-2.78-3.21-2.78-3.91,0-7.65,4.06-7.93,10.13-1.65,3.22-3.67,5.86-5,5.84s-1.72-1.43-1.72-6c0-1.77.13-5,.37-8.38a.2.2,0,0,1,.2-.19h3.89a.2.2,0,0,0,.2-.17l.2-1.21h-4.17a.21.21,0,0,1-.21-.22c.2-3.52.47-6.88.62-8.5,0-.82-1.14-.49-1.66-.55s-.62.19-.65.45c-.35,2.89-.79,5.8-1.17,8.65a.19.19,0,0,1-.19.17H95.82a.2.2,0,0,0-.2.17l-.22,1.21h1.83a.2.2,0,0,1,.2.23c-.28,2.29-.43,4.56-.58,6.79l-.64,1.33c-2.28,4.59-3.48,6.24-4.36,6.24s-1-1.34-1-3.06A80,80,0,0,1,92,31.2c0-.36-.09-.45-.46-.45s-2.6.36-2.73,1.52l-.27,2.19c-3.22-7.54-11.53-2.55-12,5.67-1.87,3.63-3.94,6.59-5.4,6.59-2.77-.06-1.47-10.34-1.35-14.4a.21.21,0,0,1,.2-.19h3.89a.2.2,0,0,0,.2-.17l.2-1.21H70.17a.21.21,0,0,1-.21-.22c.2-3.52.47-6.88.62-8.5,0-.82-1.14-.49-1.66-.55s-.62.19-.65.45c-.35,2.89-.78,5.8-1.17,8.65a.19.19,0,0,1-.19.17H65.26a.2.2,0,0,0-.2.17l-.22,1.21h1.83a.2.2,0,0,1,.2.23c-.35,4.48-2.39,17,3.08,16.91,1.92,0,4.1-2.26,6.35-6.16a.2.2,0,0,1,.38.08c.57,4.13,3.11,6.08,5.78,6.08,1.93,0,3.83-2,5.26-4.57a.21.21,0,0,1,.39.08c.26,2.51,1,4.49,2.81,4.49s3.51-2.75,5.88-7.42c0,5.34,1.38,7.42,3.71,7.42,1.83,0,3.89-2.05,6-5.61a.2.2,0,0,1,.38.07c.64,3.14,2.74,5.54,6,5.54,2.4,0,5.15-1.91,7.94-6.59a.2.2,0,0,1,.38.08c.38,3.61,2.56,6.51,6.13,6.51,2.47,0,5.3-2,8.18-7l.39.09a31,31,0,0,1-.59,7.13c-.19.9.73,1,1.37,1.23a.22.22,0,0,0,.24-.08c2-3.11,2-7.08,2-10.52,1.25-3.07,3.34-7.81,5.73-7.81,1,0,1.45.75,1.45,2.47,0,1.94-1.18,7.87-1.18,11.48,0,2.4,1.31,3,2.38,3,1.33,0,2.49-1.13,3.31-2.07a16,16,0,0,0,2.22-3.29A.63.63,0,0,0,152.07,43ZM83.66,46.72c-5.72,0-4.87-14.88.75-14.59,2.12,0,3.93,2.78,3.93,5.56C88.34,43.3,85.69,46.72,83.66,46.72Zm26-6.9c.28-13.54,11.92-6.07,0,.52Zm27.8-17.77c0-1.77.54-2.38,1.11-2.38,1.77,0,.93,7.43,0,12.56a.21.21,0,0,1-.41,0C137.83,28.3,137.47,24.22,137.47,22.05Z"/></svg>